<svg xmlns="http://www.w3.org/2000/svg">
	<defs>
		<symbol id="icon-guitar" viewBox="0 0 128 160">
			<g>
				<path d="M60.634,75.788a6.1,6.1,0,0,0-4.521.986A4.982,4.982,0,0,0,54,80.025a5.447,5.447,0,0,0,1.368,4.6A4.62,4.62,0,0,0,58.8,86.142c.161,0,.324-.008.488-.024,3.07-.3,4.667-1.824,4.88-4.66C64.248,79.16,63.371,76.3,60.634,75.788Z"/>
				<path d="M64.312,76.678c.1-.121.231-.286.308-.407v0c.255-.421.506-.848.765-1.287l.063-.107-.107-.063c-.45-.268-.895-.543-1.341-.818a32.022,32.022,0,0,0-4.038-2.232l-.1-.043-.058.091q-.236.375-.468.751c-.194.313-.388.625-.585.934l-.07.11.113.065a7.445,7.445,0,0,1,1.046.727l.032.027.042,0c.054,0,.107,0,.16,0l.165.005a5.084,5.084,0,0,1,3.871,2.235l.095.136Z"/>
				<path d="M66.083,73.78l.235-.41c.383-.669.765-1.335,1.14-2.01l.058-.105-.1-.063c-.541-.329-1.1-.648-1.642-.955a29.074,29.074,0,0,1-3.459-2.19l-.11-.085-.073.119c-.314.513-.631,1.02-.948,1.526q-.287.456-.57.913l-.076.123.132.058A32.635,32.635,0,0,1,64.7,72.937c.423.262.845.523,1.272.778Z"/>
				<path d="M57.518,100.288c-.174-.073-.338-.142-.473-.212-.766-.4-1.52-.857-2.249-1.295-.881-.531-1.792-1.08-2.739-1.547-1.3-.64-2.642-1.25-3.939-1.839-2.168-.987-4.41-2.007-6.523-3.193l-.091-.051-.066.079c-.866,1.032-1.2,1.812-1.027,2.382a1.266,1.266,0,0,0,.967.785c.128.037.269.071.416.106a3.681,3.681,0,0,1,1.24.452,8.085,8.085,0,0,1,1.52,1.594A9.52,9.52,0,0,0,45.877,99a7.9,7.9,0,0,0,4.36,2.039c.137.014.279.025.424.037a5.458,5.458,0,0,1,1.553.274,9.184,9.184,0,0,1,1.063.621c1.044.66,2.431,1.537,3.326,1.537a1.017,1.017,0,0,0,.313-.044.745.745,0,0,0,.48-.446,3.615,3.615,0,0,1,.93-1.373.638.638,0,0,0,.274-.565C58.539,100.716,58.02,100.5,57.518,100.288Z"/>
				<path d="M66.971,64.289A21.617,21.617,0,0,0,70.34,65.9l.116.061,1.595-2.9L71.962,63a20.016,20.016,0,0,0-1.883-1.161,12.572,12.572,0,0,1-2.8-1.939l-.113-.114-.083.137q-.781,1.3-1.575,2.607l-.454.749.123.06C65.785,63.634,66.388,63.967,66.971,64.289Z"/>
				<path d="M62.952,66.947a24.289,24.289,0,0,0,3.492,2.228c.493.276,1,.561,1.493.855l.112.067.062-.115a.643.643,0,0,1,.234-.241l.028-.017.088-.158c.265-.474.529-.947.793-1.424.13-.231.258-.464.385-.7l.207-.379-.135-.05a26.465,26.465,0,0,1-3.27-1.588c-.631-.343-1.284-.7-1.943-1.015l-.1-.049-1.529,2.513Z"/>
				<path d="M74.936,57.584l.1.035.051-.093q.7-1.269,1.386-2.544l.556-1.023-.093-.063c-.846-.574-1.741-1.094-2.607-1.6-.606-.352-1.233-.716-1.836-1.095l-.108-.067-.066.108q-1.047,1.731-2.09,3.463l-.052.086.074.07A13.446,13.446,0,0,0,74.936,57.584Z"/>
				<path d="M70.805,60.809A18.107,18.107,0,0,1,72.55,61.87l.115.083.067-.125c.3-.556.608-1.109.913-1.662q.354-.645.708-1.289l.069-.127-.136-.05A14.737,14.737,0,0,1,69.623,56l-.113-.1-.077.129q-.473.791-.948,1.577l-.638,1.057.061.069A10.471,10.471,0,0,0,70.805,60.809Z"/>
				<path d="M64.736,98.45a15.944,15.944,0,0,0,2.919-5.505l.18-.479c.95-2.53,1.865-5.22,1.714-7.862-.081-1.33-.606-3.707-1.723-4.8l-.2-.192-.017.273c-.224,3.681-1.357,6.318-3.463,8.061A7.63,7.63,0,0,1,59.6,89.614c-.036,0-.072,0-.107,0-1.561,0-2.054.621-2.727,1.926l-.035.066a5.5,5.5,0,0,0-.86,2.886c.159,1.989,1.987,4.091,4.253,4.886a5.165,5.165,0,0,0,1.714.309A3.884,3.884,0,0,0,64.736,98.45Z"/>
				<path d="M86.424,34.136A22.656,22.656,0,0,0,83.535,32.7l-.1-.038-.054.09c-.658,1.088-1.316,2.177-1.964,3.27l-.081.138.152.046a10.6,10.6,0,0,1,2.517,1.3c.436.277.888.563,1.353.81l.11.058.059-.109c.459-.847.915-1.7,1.371-2.546l.546-1.017-.111-.059C87.032,34.475,86.729,34.306,86.424,34.136Z"/>
				<path d="M83.484,38.649a8.65,8.65,0,0,0-2.669-1.325.378.378,0,0,0-.063-.019l-.087-.019-.046.077q-1.047,1.761-2.1,3.533l-.055.094.085.068A10.108,10.108,0,0,0,80.6,42.213a9.809,9.809,0,0,1,2.012,1.138l.117.093.071-.132L83.835,41.4q.489-.9.975-1.8l.06-.111-.111-.059C84.322,39.2,83.9,38.918,83.484,38.649Z"/>
				<path d="M86.657,28.177l-.331-.172-.062.1c-.715,1.135-1.414,2.258-2.076,3.336l-.076.125.135.056a29.769,29.769,0,0,1,2.841,1.439c.282.155.564.311.848.464l.11.06,1.939-3.6-.105-.061C88.823,29.3,87.722,28.73,86.657,28.177Z"/>
				<path d="M91.444,25.063c-.755-.4-1.536-.811-2.33-1.164l-.1-.043-.059.088c-.677,1.017-1.292,1.957-1.879,2.872l-.074.115.449.234c1,.521,2.029,1.059,3.018,1.633l.112.066.061-.114q.414-.776.83-1.547t.831-1.546l.059-.112-.112-.058C91.983,25.347,91.714,25.205,91.444,25.063Z"/>
				<path d="M74.189,76.608a6.643,6.643,0,0,1-3.246-.779A6.238,6.238,0,0,1,68.571,72.4l-.088-.272-.14.249c-.652,1.165-1.315,2.324-1.972,3.445-.092.155-.188.338-.29.533a4.574,4.574,0,0,1-1.15,1.613l-.084.056.037.094a8.389,8.389,0,0,1,.553,3.326c-.274,3.7-2.578,5.919-6.163,5.943h-.057a6.6,6.6,0,0,1-4.847-2.011,6.428,6.428,0,0,1-1.722-4.867,6.544,6.544,0,0,1,4.971-5.794l.342-.1-.4-.169c-.039-.017-.078-.035-.112-.048a.526.526,0,0,1-.271-.339.658.658,0,0,1,.05-.518c2.273-3.581,4.46-7.162,6.111-9.882l.073-.119-.126-.06c-3.464-1.624-7.449-3.286-10.9-2.422-4.393,1.1-5.144,4.95-5.87,8.674a32.748,32.748,0,0,1-.764,3.31c-1.341,4.356-4.662,6.172-8.178,8.095a44.072,44.072,0,0,0-3.845,2.277c-7.141,4.9-10.328,10.547-9.742,17.272.482,5.538,3.588,10.271,9.232,14.068,5.048,3.4,11.846,7.979,18.714,7.979q.68,0,1.36-.062c7.237-.66,14.092-5.884,15.947-12.15.907-3.062.64-6.233.381-9.3s-.527-6.245.408-9.261a13.117,13.117,0,0,1,3.834-5.854c.229-.217.49-.453.767-.7,1.639-1.484,3.884-3.517,3.817-5.645C78.361,76.931,76.24,76.767,74.189,76.608ZM59.887,100.7c.247.507.06,1.025-.665,1.846a6.893,6.893,0,0,0-.68,1c-.636,1.06-1.237,2.059-2.636,1.478a8.454,8.454,0,0,1-1.809-1.114c-.355-.262-.721-.533-1.125-.776a6,6,0,0,0-2.482-.7,7.8,7.8,0,0,1-1.786-.371,11.131,11.131,0,0,1-5.273-4A4.4,4.4,0,0,0,41.308,96.8c-.991-.362-1.926-.7-2.2-1.724-.374-1.357.65-2.795,1.453-3.759l.026-.03,0-.039a.728.728,0,0,1,.373-.57.545.545,0,0,1,.253-.063.618.618,0,0,1,.315.093,70.837,70.837,0,0,0,7.3,3.556c2.174.959,4.422,1.95,6.509,3.106l.366.2-.2-.37c-1.114-2.121-.84-4.791.75-7.327.872-1.4,2.125-1.52,3.453-1.652a6.338,6.338,0,0,0,3.2-.938c2.3-1.6,3.408-4.278,3.475-8.427a.6.6,0,0,1,.193-.447l.029-.039a.556.556,0,0,1,.7-.318c1.47.454,2.543,2.026,3.19,4.673a14.248,14.248,0,0,1-.63,7.732l-.141.442c-1.392,4.378-3.5,11-9.193,9.755-.112-.026-.217-.055-.323-.085l-.448-.12Z"/>
				<path d="M79.65,43.081a12.356,12.356,0,0,1-1.718-.928l-.11-.076-.069.115q-.924,1.57-1.857,3.127l-.049.084.068.069A10.612,10.612,0,0,0,79.3,47.516c.293.13.586.26.874.4l.107.05.555-1.026q.609-1.123,1.213-2.248l.044-.083-.068-.065A8.585,8.585,0,0,0,79.65,43.081Z"/>
				<path d="M78.646,48.588a12.694,12.694,0,0,1-3.358-1.971l-.113-.1-.078.131q-.7,1.168-1.4,2.322c-.146.233-.286.469-.428.7l-.229.383.1.065c.6.378,1.228.741,1.833,1.091.846.491,1.721,1,2.542,1.554l.115.078.065-.122q.631-1.17,1.271-2.338l.25-.462q.2-.367.4-.732l.064-.116-.119-.057C79.261,48.87,78.953,48.729,78.646,48.588Z"/>
				<path d="M103.532,12.213l-.342.531q-.841-.42-1.686-.834c.458-.67.945-1.32,1.43-1.957.277-.363.553-.726.822-1.091l.025-.033V8.748c-.035-.943-1.362-1.779-2.154-2.278l-.151-.1h0a4.526,4.526,0,0,0-4.105-.766l-.054.021-.02.054a18.2,18.2,0,0,1-1.512,3.132c-.212-.15-.43-.292-.633-.43a11.2,11.2,0,0,0-1.079-.647c.1-.12.205-.23.276-.305.67-.695-.389-1.757-1.06-1.06a3.713,3.713,0,0,0-1.184,2.1.729.729,0,0,0,1.22.549l.027.013c.116.063.229.131.342.2.238.144.471.295.7.451.19.128.392.259.584.4-.521.768-1.077,1.51-1.645,2.238a13.072,13.072,0,0,0-1.986-1.209c.074-.1.141-.213.219-.316A.755.755,0,0,0,91.3,9.771a.768.768,0,0,0-1.027.269,12.54,12.54,0,0,0-1.1,1.74c-.447.855.847,1.614,1.3.757.027-.052.06-.1.088-.152a10.979,10.979,0,0,1,1.86,1.1c-.106.131-.211.263-.316.394-.627.782-1.257,1.589-1.872,2.408-.01,0-.015-.011-.026-.014a4.328,4.328,0,0,1-1.893-1.152c.094-.205.189-.408.275-.616a.755.755,0,0,0-.524-.923.768.768,0,0,0-.922.524,12.649,12.649,0,0,1-.732,1.458.751.751,0,0,0,1.14.933,6.365,6.365,0,0,0,1.775,1.04c-.062.089-.131.173-.192.263l-.03.044.012.052a12.252,12.252,0,0,1-.067,4.335l-.034.252.089.037c1.043.434,2.065.966,3.053,1.479l.476.247.063-.088c.691-.977,2.283-1.264,3.562-1.495.272-.049.533-.1.771-.146l.058-.013.027-.053c.042-.083.076-.169.116-.252A11.034,11.034,0,0,0,98.835,23.3c-.336.705.586,1.545,1.167.874a6.837,6.837,0,0,0,1.287-2.2c.327-.91-1.122-1.3-1.447-.4a4.442,4.442,0,0,1-.212.453,9.8,9.8,0,0,1-1.778-1.266c.389-.99.724-2,1.044-2.987.085-.264.176-.532.263-.8a5.142,5.142,0,0,1,1.565.969A.664.664,0,0,0,100.8,18a.759.759,0,0,0,.526.9.768.768,0,0,0,.923-.524,2.81,2.81,0,0,1,.794-1.079c.726-.64-.338-1.7-1.06-1.06a3.838,3.838,0,0,0-.429.447,13.258,13.258,0,0,0-1.893-1.156c.112-.307.218-.616.339-.918a11.945,11.945,0,0,1,.7-1.426q.86.42,1.715.849a.761.761,0,0,0,1.391.51l1.017-1.572C105.353,12.157,104.055,11.405,103.532,12.213Z"/>
			</g>
		</symbol>
		<symbol id="icon-bass" viewBox="0 0 128 160">
			<path d="M42.305,85.559l-.094-.089-.086.1a17.52,17.52,0,0,0-1.449,2q-.2.309-.406.614l-.058.086.073.072a24.425,24.425,0,0,0,6.986,4.353l.4.189.061-.083A11.7,11.7,0,0,0,49.2,90.323l.036-.086-.072-.059a23.79,23.79,0,0,0-3.157-2.064A19.244,19.244,0,0,1,42.305,85.559Z"/>
			<path d="M45.645,98.259l.549.3.145-.357a7.239,7.239,0,0,1,.354-.8l.053-.1-.092-.064c-.748-.517-1.511-1.03-2.28-1.546a63.741,63.741,0,0,1-7.157-5.309l-.1-.087-.329.393c-.249.3-.5.6-.741.9l-.071.088.081.079C38.719,94.409,42.4,96.454,45.645,98.259Z"/>
			<path d="M50.906,87.33l.073-.114c.061-.1.119-.192.176-.287l.025-.042.466-.76q.246-.4.49-.8l.072-.118-.125-.06a21.177,21.177,0,0,1-6.131-4.69l-.106-.111-.087.127c-.5.721-.959,1.376-1.41,2l-.089.124.138.063a21.848,21.848,0,0,1,4.654,3.19c.567.465,1.153.946,1.747,1.4Z"/>
			<path d="M47.619,118.676a1.291,1.291,0,0,0-1.183-.312.455.455,0,0,0-.26.355.988.988,0,0,0,.161.786,1.15,1.15,0,0,0,.848.344,1.659,1.659,0,0,0,.419-.057c.293-.1.382-.268.4-.392A.826.826,0,0,0,47.619,118.676Z"/>
			<path d="M34.146,109.434a27.7,27.7,0,0,0-2.743-1.966c-.175-.1-.352-.206-.529-.308a10.1,10.1,0,0,1-2.611-1.9l-.107-.119-.09.132a6.884,6.884,0,0,1-.955,1.157l-.126.12.154.081a19.041,19.041,0,0,1,2.906,2.046c.533.427,1.085.869,1.637,1.255.448.314.909.618,1.355.913.836.551,1.7,1.122,2.493,1.766l.1.08.078-.1a12.082,12.082,0,0,0,.838-1.259l.061-.1-.1-.065C35.687,110.636,34.9,110.025,34.146,109.434Z"/>
			<path d="M40.085,104.27A63.48,63.48,0,0,1,31.8,98.423l-.1-.089-.082.107c-.2.267-.413.57-.639.925l-.066.1.1.069c1.442.965,2.87,2.023,4.25,3.046,1.884,1.4,3.831,2.839,5.85,4.073l.09.055.07-.079a7.092,7.092,0,0,0,.737-1l.063-.1-.1-.066Q41.033,104.863,40.085,104.27Z"/>
			<path d="M40.732,116.029l-.028.012a.634.634,0,0,0-.324.65,1.1,1.1,0,0,0,.688.85.514.514,0,0,0,.142.021.386.386,0,0,0,.3-.143.961.961,0,0,0,.113-.478,1.286,1.286,0,0,0-.123-.53C41.325,116.075,41.137,115.908,40.732,116.029Z"/>
			<path d="M33.521,106.459a21.234,21.234,0,0,1-4.084-3.061l-.108-.111-.087.129c-.157.236-.3.476-.453.721l-.056.091.081.069a.326.326,0,0,1,.063.074,7.306,7.306,0,0,0,2.448,1.874,11.828,11.828,0,0,1,1.562.99,43.517,43.517,0,0,0,4.149,3.017l.107.067.066-.106c.12-.193.249-.382.383-.572l.059-.085-.073-.075A21.874,21.874,0,0,0,33.521,106.459Z"/>
			<path d="M60.016,68.844c.53.393,1.06.787,1.6,1.17l.107.076L63.567,67.2l-.108-.067c-1.008-.622-1.985-1.328-2.931-2.01-.831-.6-1.69-1.221-2.569-1.786A.249.249,0,0,0,57.9,63.3l-.1-.049-.863,1.235-1,1.434-.078.112.119.068A40.2,40.2,0,0,1,60.016,68.844Z"/>
			<path d="M49.746,89.3l.066-.137c.134-.275.289-.554.473-.854l.06-.1-.09-.068c-.565-.433-1.126-.9-1.67-1.357a19.033,19.033,0,0,0-4.869-3.281l-.088-.036-.059.076c-.238.312-.476.62-.718.928l-.07.087.078.079A18.493,18.493,0,0,0,46.8,87.407a26.509,26.509,0,0,1,2.824,1.8Z"/>
			<path d="M48.862,113.354a.672.672,0,0,0-.909-.188.773.773,0,0,0-.4.629.67.67,0,0,0,.328.585,1.171,1.171,0,0,0,.632.193.859.859,0,0,0,.224-.028.479.479,0,0,0,.322-.234.972.972,0,0,0,.046-.391A1.181,1.181,0,0,0,48.862,113.354Z"/>
			<path d="M59.158,73.3l.355.276.668-1.057q.455-.72.912-1.438l.063-.1-.1-.069c-.511-.367-1.015-.741-1.52-1.116a39.34,39.34,0,0,0-4.185-2.839l-.1-.056-.065.093q-.879,1.263-1.767,2.527l-.092.131.149.058A22.714,22.714,0,0,1,59.158,73.3Z"/>
			<path d="M46.458,79.465l.068.074a19.893,19.893,0,0,0,6.132,4.726l.1.047.408-.658c.377-.607.753-1.213,1.135-1.82l.068-.108-.11-.066c-.766-.454-1.5-.992-2.21-1.512-.534-.392-1.086-.8-1.652-1.165a9.318,9.318,0,0,1-2.177-1.773l-.1-.122-.094.129c-.068.093-.133.186-.2.28s-.115.164-.176.247q-.572.816-1.134,1.639Z"/>
			<path d="M51.045,78.145c.268.171.536.343.794.524h0c.345.241.682.492,1.021.743a23.821,23.821,0,0,0,1.962,1.355l.1.062.065-.1c.109-.171.214-.336.317-.5q.638-1.01,1.277-2.024l.06-.095-.088-.07q-.742-.575-1.489-1.14c-1.424-1.083-2.9-2.2-4.242-3.426l-.1-.1-1.969,2.8.05.072A7.449,7.449,0,0,0,51.045,78.145Z"/>
			<path d="M55.817,76.157q.642.487,1.282.98l.108.085.716-1.135c.323-.511.644-1.022.968-1.531l.06-.1-.607-.476a19.509,19.509,0,0,0-5.421-3.376.29.29,0,0,1-.084-.041l-.1-.065-.069.1q-.639.91-1.277,1.814l-.063.09.08.074C52.807,73.864,54.337,75.03,55.817,76.157Z"/>
			<path d="M68.422,51.581c-.507-.364-1.03-.74-1.564-1.093l-.1-.067-.462.663q-.748,1.072-1.5,2.142l-.08.113.122.068c1.79.991,3.557,2.088,5.265,3.27l.035.029.108.082.417-.651q.69-1.073,1.381-2.146l.078-.122-.132-.06A21.873,21.873,0,0,1,68.422,51.581Z"/>
			<path d="M72.022,43.1l-.105-.094-.853,1.228q-.665.956-1.329,1.915l-.076.111.115.068c1.376.818,2.706,1.768,3.993,2.687.3.217.609.435.915.651l.106.075.515-.8q.69-1.071,1.384-2.142l.072-.111-.115-.066A28.057,28.057,0,0,1,72.022,43.1Z"/>
			<path d="M74.806,39.112l-.106-.1-2.179,3.13.083.074a27.214,27.214,0,0,0,4.625,3.533l.1.059.064-.1c.09-.143.181-.285.276-.429q.9-1.387,1.786-2.784l.077-.122L79.4,42.31A16.3,16.3,0,0,1,74.806,39.112Z"/>
			<path d="M73.243,49.931c-1.312-.939-2.67-1.91-4.089-2.747l-.1-.059-.629.9q-.5.716-1,1.432l-.073.1.106.07c.5.336,1,.7,1.477,1.054a17.875,17.875,0,0,0,3.66,2.258l.1.04.057-.088c.232-.362.466-.724.7-1.085s.468-.724.7-1.086l.065-.1-.1-.07Q73.68,50.245,73.243,49.931Z"/>
			<path d="M81.368,37.254a8.362,8.362,0,0,0-1.11-.911c-.41-.264-.837-.515-1.25-.758s-.845-.5-1.255-.762l-.1-.065-.606.872q-.842,1.21-1.679,2.414l-.059.086.073.074a14.908,14.908,0,0,0,4.627,3.228l.1.04.057-.089c.517-.808,1.03-1.617,1.546-2.427l.584-.919-.094-.069A10.889,10.889,0,0,1,81.368,37.254Z"/>
			<path d="M64.214,54.265l-.1-.054-1.148,1.643q-.661.947-1.322,1.892l-.082.116.126.067a24.2,24.2,0,0,1,3.622,2.5c.528.416,1.076.846,1.631,1.248l.107.078.418-.649q1.077-1.673,2.15-3.35l.119-.192h-.189A62.041,62.041,0,0,0,64.214,54.265Z"/>
			<path d="M87.668,20.453l-.082-.016-.047.068c-1.112,1.632-2.244,3.263-3.2,4.642l-.073.105.107.071c.508.333,1,.725,1.467,1.105a10.966,10.966,0,0,0,2.68,1.755l.094.038.057-.085c1.187-1.791,2.285-3.408,3.355-4.944l.064-.09L92,23.028A9.553,9.553,0,0,0,87.668,20.453Z"/>
			<path d="M85.45,27.414a19.512,19.512,0,0,0-1.692-1.229l-.1-.062-.068.1c-.448.638-.9,1.281-1.338,1.924-.181.257-.358.514-.537.771l-.55.788.142.06a21.379,21.379,0,0,1,3.31,1.911c.372.245.744.491,1.123.729l.1.066.067-.1c.672-1.046,1.354-2.093,2.035-3.13l.079-.12-.129-.061A13.379,13.379,0,0,1,85.45,27.414Z"/>
			<path d="M84.11,32.581a17.78,17.78,0,0,0-3.217-1.864.569.569,0,0,1-.179-.115l-.106-.1-2.353,3.386.109.07c.335.212.685.414,1.022.61.465.269.946.548,1.393.855a10.2,10.2,0,0,1,1.028.855,11.273,11.273,0,0,0,.937.794l.108.078.071-.112q1.14-1.791,2.285-3.583l.067-.1-.105-.067C84.813,33.057,84.462,32.819,84.11,32.581Z"/>
			<path d="M62.921,92.792h0c-.4.217-.8.441-1.212.645a6.647,6.647,0,0,1-4.628.287,6.059,6.059,0,0,1-3.959-3c-.676-1.336-.37-2.953-.074-4.517l.15-.8-.339.507a18.625,18.625,0,0,0-2.329,4.253.5.5,0,0,1-.224.286l-.035.022-.016.039a13.417,13.417,0,0,1-1.942,3.24.588.588,0,0,1-.738.155l-.027-.013h-.031a.561.561,0,0,1-.267-.054l-.487-.233c-2.741-1.309-5.576-2.662-7.638-4.944a.522.522,0,0,1-.142-.389.618.618,0,0,1,.238-.421.27.27,0,0,0,.031-.043c.2-.3.4-.595.6-.9A16.008,16.008,0,0,1,41.566,84.6l.027-.028.023-.12a.574.574,0,0,1,.117-.242c1.329-1.633,2.652-3.564,3.932-5.43l.092-.135-.037-.067c-1.233-2.233-3.741-7.914-.405-12.446.151-.2.313-.414.478-.627a8.5,8.5,0,0,0,1.671-2.856,1.667,1.667,0,0,0-.3-1.775,1.869,1.869,0,0,0-1.9-.137,7.763,7.763,0,0,0-4.187,3.884,26.726,26.726,0,0,0-1.9,6.746c-.851,4.436-1.732,9.023-6.189,11.044a28.257,28.257,0,0,1-4.2,1.383c-3.673,1-7.471,2.042-8.7,6.474-1.611,5.793,1.339,11.8,3.24,14.87,2.592,4.169,6.582,8.206,12.2,12.341,3.487,2.571,8.179,5.581,12.473,5.581a7.63,7.63,0,0,0,3.981-1.058c5.454-3.249,4.729-9.943,4.145-15.32l-.077-.716c-.24-2.257-.272-4.784,1.308-6.418a11.1,11.1,0,0,1,3.442-2.19c.613-.291,1.247-.592,1.856-.951a7.29,7.29,0,0,0,2.979-2.947c.226-.532.222-.91-.011-1.124C65,91.766,62.942,92.781,62.921,92.792ZM41.926,69.642a14.628,14.628,0,0,1,.82-3.173,11.777,11.777,0,0,1,.606-1.3,9.4,9.4,0,0,1,.615-1.028l.022-.033a9.042,9.042,0,0,1,1.256-1.493l-.126.189c-.234.352-.557.835-.9,1.447l-.1.179c-.152.283-.31.576-.448.9-.161.327-.3.681-.439,1.055l-.088.233a16.681,16.681,0,0,0-.736,3.09,19.585,19.585,0,0,0-.135,3.185l.011.177c.026.428.049.832.1,1.208.039.441.106.85.166,1.213.1.588.2,1.078.279,1.471.03.147.06.291.084.418a12.008,12.008,0,0,1-.628-1.833c-.093-.365-.187-.765-.258-1.217-.077-.393-.12-.815-.166-1.262l-.014-.148A16.494,16.494,0,0,1,41.926,69.642ZM35.071,91.4l.046-.037V91.3a.692.692,0,0,1,.154-.416c.2-.249.409-.494.615-.74.228-.272.457-.544.678-.82l.035-.04a.6.6,0,0,1,.42-.27.5.5,0,0,1,.407.145,55.432,55.432,0,0,0,7.451,5.609c.93.622,1.89,1.265,2.8,1.9a.606.606,0,0,1,.154.165.515.515,0,0,1,.015.724,3.5,3.5,0,0,0-.656,1.245,6.68,6.68,0,0,1-.267.659c-.017.039-.031.071-.039.088a.313.313,0,0,0-.042.071.462.462,0,0,1-.375.25.586.586,0,0,1-.495-.222l-.819-.466c-3.467-1.929-7.4-4.117-10.154-7a.488.488,0,0,1-.149-.377A.584.584,0,0,1,35.071,91.4Zm3.7,18.432h0a11.309,11.309,0,0,0-1.306,1.925,13.2,13.2,0,0,1-1.057,1.624l-.035.045.01.056a.548.548,0,0,1-.3.547.5.5,0,0,1-.608-.079,31.705,31.705,0,0,0-4.634-3.363l-.7-.446a17.554,17.554,0,0,1-1.54-1.164,11.384,11.384,0,0,0-2.471-1.677.4.4,0,0,1-.262-.431l.006-.046-.025-.038a.542.542,0,0,1,.133-.774,6.718,6.718,0,0,0,1.886-2.345,13.172,13.172,0,0,1,.791-1.25.545.545,0,0,1,.248-.192l.033-.013.022-.028a.54.54,0,0,1,.4-.228h.012a.435.435,0,0,1,.333.172,18.852,18.852,0,0,0,4.589,3.609,20.982,20.982,0,0,1,4.152,3.128l.051.07.036.013a.606.606,0,0,1,.366.415A.5.5,0,0,1,38.773,109.833Zm3.251,8.532a1.384,1.384,0,0,1-1.542.1,2.374,2.374,0,0,1-1.156-2.046,1.457,1.457,0,0,1,.916-1.335.2.2,0,0,1,.039-.01l.037-.015a.539.539,0,0,1,.076-.038,1.609,1.609,0,0,1,.543-.1,1.762,1.762,0,0,1,1.5,1.028A1.847,1.847,0,0,1,42.024,118.365Zm1.389-12.9a.6.6,0,0,1-.351.488l-.041.016-.021.038a8.286,8.286,0,0,1-1.233,1.646.476.476,0,0,1-.465.145l-.031-.008-.033.009a.493.493,0,0,1-.384-.06c-2.1-1.262-4.12-2.763-6.074-4.215-1.512-1.124-3.077-2.286-4.67-3.331a.5.5,0,0,1-.239-.466l0-.042-.023-.034a.432.432,0,0,1,.01-.5,15.61,15.61,0,0,1,1.292-1.8.618.618,0,0,1,.425-.294.594.594,0,0,1,.072-.005A.51.51,0,0,1,32,97.2a55.693,55.693,0,0,0,8.509,6.1c.88.55,1.789,1.118,2.664,1.686A.505.505,0,0,1,43.413,105.469Zm5.609,14.181a1.632,1.632,0,0,1-1.007,1.1l-.016.009a.472.472,0,0,1-.134.05.67.67,0,0,1-.159.03,2.187,2.187,0,0,1-2.381-.979,1.969,1.969,0,0,1-.068-1.646,1.459,1.459,0,0,1,.915-.872,1.947,1.947,0,0,1,.566-.082,2.514,2.514,0,0,1,1.876.884A1.7,1.7,0,0,1,49.022,119.65Zm.745-4.529a1.766,1.766,0,0,1-1.329.512,1.93,1.93,0,0,1-1.409-.613,1.891,1.891,0,0,1-.491-1.456,1.725,1.725,0,0,1,.733-1.2.634.634,0,0,1,.152-.11.79.79,0,0,1,.157-.062,2,2,0,0,1,.747-.151,1.742,1.742,0,0,1,1.458.8A1.868,1.868,0,0,1,49.767,115.121Zm1.428-5.85a1.462,1.462,0,0,1-.8.891h0a1.872,1.872,0,0,1-2.349-.5,1.716,1.716,0,0,1,.44-2.358.428.428,0,0,1,.137-.1.6.6,0,0,1,.249-.083,2.168,2.168,0,0,1,.605-.085,1.774,1.774,0,0,1,1.6.886A1.685,1.685,0,0,1,51.2,109.271Zm8.647-13.209,0,0c-.126.073-.265.151-.413.234a23.171,23.171,0,0,0-2.241,1.392A9.971,9.971,0,0,0,55.6,99.1a6.371,6.371,0,0,0-1.2,2.066A7.825,7.825,0,0,0,54,103.786a8.011,8.011,0,0,0,.023.956c.009.152.019.3.026.47.016.127.03.256.045.386s.026.234.041.352l.1.729a31.58,31.58,0,0,1,.484,5.7,13.5,13.5,0,0,1-.786,4.609,8.324,8.324,0,0,1-1.6,2.706c-.063.066-.124.127-.181.183a9.926,9.926,0,0,0,1.528-2.976,14.643,14.643,0,0,0,.614-4.524,35.555,35.555,0,0,0-.536-5.619l-.061-.366L53.655,106c-.026-.209-.049-.414-.07-.62l-.012-.1c-.006-.14-.014-.281-.023-.421a8.22,8.22,0,0,1-.02-1.073,9.9,9.9,0,0,1,.1-1.309l.025-.17A8.283,8.283,0,0,1,54,101.022a6.586,6.586,0,0,1,1.327-2.161,9.555,9.555,0,0,1,1.7-1.39,18.129,18.129,0,0,1,2.752-1.423l.037-.016c.095-.037.18-.071.258-.1C60.009,95.972,59.929,96.015,59.842,96.062Z"/>
			<path d="M49.16,108.112l-.015.009a.645.645,0,0,0-.351.568.676.676,0,0,0,.372.561.744.744,0,0,0,.351.089.781.781,0,0,0,.416-.125.528.528,0,0,0,.233-.73A.824.824,0,0,0,49.16,108.112Z"/>
			<path d="M108.4,15.634a3.5,3.5,0,0,0-3.031.166,2.552,2.552,0,0,0-.267.287.779.779,0,0,0-.28-.165,9.865,9.865,0,0,1-1.555-1.035,11.14,11.14,0,0,0-1.816-.783c.221-.246.429-.489.67-.741a11.472,11.472,0,0,1,1.464-1.227c.143-.107.289-.216.437-.329a1.726,1.726,0,0,0,.763-1.517A4.42,4.42,0,0,0,102.6,7.371h0q-.291-.173-.586-.353a21.051,21.051,0,0,0-2.175-1.2c-2.382-1.076-3.148.239-3.888,1.508a9.224,9.224,0,0,1-.627.979c-.308.4-.621.831-.925,1.249a.664.664,0,0,0-.057-.077L92.822,8.126a4.093,4.093,0,0,0-1.11-.846,2.938,2.938,0,0,0-.023-1.865l-.1-.241a.376.376,0,0,0-.323-.233.344.344,0,0,0-.351.19l-.157.277a2.159,2.159,0,0,0-.115.223c-.114.259-.212.527-.307.786l-.043.12s-.074.191-.2.146a1.731,1.731,0,0,0-.82-.126.7.7,0,0,0-.126.042.371.371,0,0,0-.2.127c-.013.015-.064.09-.074.107a.752.752,0,0,0-.089.447,1.616,1.616,0,0,0,.038.253v.015a.342.342,0,0,0,.095.239,1.483,1.483,0,0,0,.874.769,1.434,1.434,0,0,0,.421.062,1.839,1.839,0,0,0,.632-.134.71.71,0,0,0,.264.148,7.271,7.271,0,0,1,1,.876l1.156,1.026a.779.779,0,0,0,.274.159A17.8,17.8,0,0,1,91.561,13a6.568,6.568,0,0,1-1.13.738c-.35.2-.713.41-1.033.636-.008-.006-.011-.014-.019-.02a14.947,14.947,0,0,1-2.416-2.144,3.44,3.44,0,0,0-.288-1.759l-.143-.273a.375.375,0,0,0-.691.064l-.092.3a.723.723,0,0,1-.037.106.559.559,0,0,1-.547.284c-.4,0-1.331.214-1.507.852-.063.228-.072.668.574,1.047a2.9,2.9,0,0,0,1.507.357c.028,0,.062-.006.091-.007.008.01.01.021.019.03a17.211,17.211,0,0,0,2.641,2.337.952.952,0,0,0,.027.372,5.078,5.078,0,0,1-.143,3.472l-.054.129.135.038a11.356,11.356,0,0,1,4.3,2.726l.071.065.081-.053a3.46,3.46,0,0,1,1-.422c.16-.042.461-.082.809-.128,1.182-.157,2.8-.371,2.985-1.086l.039-.153.014-.05a7.635,7.635,0,0,1,1.218.676,14.608,14.608,0,0,0,1.772,1.423.73.73,0,0,0,.53.045.371.371,0,0,0-.085.233v.131c0,.041,0,.081,0,.114,0,.016-.113,1.518.6,1.739a.937.937,0,0,0,.175.027.765.765,0,0,0,.645-.447c.047-.077.093-.16.166-.292.23-.416.466-.845.824-.9a.873.873,0,0,0,.784-.579.883.883,0,0,0-.288-.9,1.22,1.22,0,0,0-1.242-.274,3.526,3.526,0,0,0-1.008.591.613.613,0,0,0-.342-.78A22.038,22.038,0,0,1,99.514,19.7a8.846,8.846,0,0,0-1.315-.68,6.382,6.382,0,0,1,.247-.633,17.618,17.618,0,0,1,2.113-3.231.742.742,0,0,0,.415.365,7.833,7.833,0,0,1,1.93.914,5.965,5.965,0,0,0,1.521.934.685.685,0,0,0,.223.029,1.3,1.3,0,0,0,.008.153,1.556,1.556,0,0,0,1.186,1.126,1.529,1.529,0,0,0,.427.072.726.726,0,0,0,.541-.213c.336-.347.159-.872.072-1.262a.2.2,0,0,1,.147-.088l.155,0c.454.014,1.215.04,1.47-.519A.82.82,0,0,0,108.4,15.634Z"/>
			<path d="M64.791,61.348a23.491,23.491,0,0,0-3.733-2.564l-.1-.05-2.548,3.648.109.071c.852.549,1.688,1.152,2.5,1.735.969.7,1.972,1.422,3.012,2.061l.1.064,2.344-3.676-.095-.069C65.845,62.175,65.31,61.754,64.791,61.348Z"/>
		</symbol>
	</defs>
</svg>
