<svg xmlns="http://www.w3.org/2000/svg" viewBox="0 0 128 160" x="0px" y="0px">
<g>
<path d="M60.634,75.788a6.1,6.1,0,0,0-4.521.986A4.982,4.982,0,0,0,54,80.025a5.447,5.447,0,0,0,1.368,4.6A4.62,4.62,0,0,0,58.8,86.142c.161,0,.324-.008.488-.024,3.07-.3,4.667-1.824,4.88-4.66C64.248,79.16,63.371,76.3,60.634,75.788Z"/>
<path d="M64.312,76.678c.1-.121.231-.286.308-.407v0c.255-.421.506-.848.765-1.287l.063-.107-.107-.063c-.45-.268-.895-.543-1.341-.818a32.022,32.022,0,0,0-4.038-2.232l-.1-.043-.058.091q-.236.375-.468.751c-.194.313-.388.625-.585.934l-.07.11.113.065a7.445,7.445,0,0,1,1.046.727l.032.027.042,0c.054,0,.107,0,.16,0l.165.005a5.084,5.084,0,0,1,3.871,2.235l.095.136Z"/>
<path d="M66.083,73.78l.235-.41c.383-.669.765-1.335,1.14-2.01l.058-.105-.1-.063c-.541-.329-1.1-.648-1.642-.955a29.074,29.074,0,0,1-3.459-2.19l-.11-.085-.073.119c-.314.513-.631,1.02-.948,1.526q-.287.456-.57.913l-.076.123.132.058A32.635,32.635,0,0,1,64.7,72.937c.423.262.845.523,1.272.778Z"/>
<path d="M57.518,100.288c-.174-.073-.338-.142-.473-.212-.766-.4-1.52-.857-2.249-1.295-.881-.531-1.792-1.08-2.739-1.547-1.3-.64-2.642-1.25-3.939-1.839-2.168-.987-4.41-2.007-6.523-3.193l-.091-.051-.066.079c-.866,1.032-1.2,1.812-1.027,2.382a1.266,1.266,0,0,0,.967.785c.128.037.269.071.416.106a3.681,3.681,0,0,1,1.24.452,8.085,8.085,0,0,1,1.52,1.594A9.52,9.52,0,0,0,45.877,99a7.9,7.9,0,0,0,4.36,2.039c.137.014.279.025.424.037a5.458,5.458,0,0,1,1.553.274,9.184,9.184,0,0,1,1.063.621c1.044.66,2.431,1.537,3.326,1.537a1.017,1.017,0,0,0,.313-.044.745.745,0,0,0,.48-.446,3.615,3.615,0,0,1,.93-1.373.638.638,0,0,0,.274-.565C58.539,100.716,58.02,100.5,57.518,100.288Z"/>
<path d="M66.971,64.289A21.617,21.617,0,0,0,70.34,65.9l.116.061,1.595-2.9L71.962,63a20.016,20.016,0,0,0-1.883-1.161,12.572,12.572,0,0,1-2.8-1.939l-.113-.114-.083.137q-.781,1.3-1.575,2.607l-.454.749.123.06C65.785,63.634,66.388,63.967,66.971,64.289Z"/>
<path d="M62.952,66.947a24.289,24.289,0,0,0,3.492,2.228c.493.276,1,.561,1.493.855l.112.067.062-.115a.643.643,0,0,1,.234-.241l.028-.017.088-.158c.265-.474.529-.947.793-1.424.13-.231.258-.464.385-.7l.207-.379-.135-.05a26.465,26.465,0,0,1-3.27-1.588c-.631-.343-1.284-.7-1.943-1.015l-.1-.049-1.529,2.513Z"/>
<path d="M74.936,57.584l.1.035.051-.093q.7-1.269,1.386-2.544l.556-1.023-.093-.063c-.846-.574-1.741-1.094-2.607-1.6-.606-.352-1.233-.716-1.836-1.095l-.108-.067-.066.108q-1.047,1.731-2.09,3.463l-.052.086.074.07A13.446,13.446,0,0,0,74.936,57.584Z"/>
<path d="M70.805,60.809A18.107,18.107,0,0,1,72.55,61.87l.115.083.067-.125c.3-.556.608-1.109.913-1.662q.354-.645.708-1.289l.069-.127-.136-.05A14.737,14.737,0,0,1,69.623,56l-.113-.1-.077.129q-.473.791-.948,1.577l-.638,1.057.061.069A10.471,10.471,0,0,0,70.805,60.809Z"/>
<path d="M64.736,98.45a15.944,15.944,0,0,0,2.919-5.505l.18-.479c.95-2.53,1.865-5.22,1.714-7.862-.081-1.33-.606-3.707-1.723-4.8l-.2-.192-.017.273c-.224,3.681-1.357,6.318-3.463,8.061A7.63,7.63,0,0,1,59.6,89.614c-.036,0-.072,0-.107,0-1.561,0-2.054.621-2.727,1.926l-.035.066a5.5,5.5,0,0,0-.86,2.886c.159,1.989,1.987,4.091,4.253,4.886a5.165,5.165,0,0,0,1.714.309A3.884,3.884,0,0,0,64.736,98.45Z"/>
<path d="M86.424,34.136A22.656,22.656,0,0,0,83.535,32.7l-.1-.038-.054.09c-.658,1.088-1.316,2.177-1.964,3.27l-.081.138.152.046a10.6,10.6,0,0,1,2.517,1.3c.436.277.888.563,1.353.81l.11.058.059-.109c.459-.847.915-1.7,1.371-2.546l.546-1.017-.111-.059C87.032,34.475,86.729,34.306,86.424,34.136Z"/>
<path d="M83.484,38.649a8.65,8.65,0,0,0-2.669-1.325.378.378,0,0,0-.063-.019l-.087-.019-.046.077q-1.047,1.761-2.1,3.533l-.055.094.085.068A10.108,10.108,0,0,0,80.6,42.213a9.809,9.809,0,0,1,2.012,1.138l.117.093.071-.132L83.835,41.4q.489-.9.975-1.8l.06-.111-.111-.059C84.322,39.2,83.9,38.918,83.484,38.649Z"/>
<path d="M86.657,28.177l-.331-.172-.062.1c-.715,1.135-1.414,2.258-2.076,3.336l-.076.125.135.056a29.769,29.769,0,0,1,2.841,1.439c.282.155.564.311.848.464l.11.06,1.939-3.6-.105-.061C88.823,29.3,87.722,28.73,86.657,28.177Z"/>
<path d="M91.444,25.063c-.755-.4-1.536-.811-2.33-1.164l-.1-.043-.059.088c-.677,1.017-1.292,1.957-1.879,2.872l-.074.115.449.234c1,.521,2.029,1.059,3.018,1.633l.112.066.061-.114q.414-.776.83-1.547t.831-1.546l.059-.112-.112-.058C91.983,25.347,91.714,25.205,91.444,25.063Z"/>
<path d="M74.189,76.608a6.643,6.643,0,0,1-3.246-.779A6.238,6.238,0,0,1,68.571,72.4l-.088-.272-.14.249c-.652,1.165-1.315,2.324-1.972,3.445-.092.155-.188.338-.29.533a4.574,4.574,0,0,1-1.15,1.613l-.084.056.037.094a8.389,8.389,0,0,1,.553,3.326c-.274,3.7-2.578,5.919-6.163,5.943h-.057a6.6,6.6,0,0,1-4.847-2.011,6.428,6.428,0,0,1-1.722-4.867,6.544,6.544,0,0,1,4.971-5.794l.342-.1-.4-.169c-.039-.017-.078-.035-.112-.048a.526.526,0,0,1-.271-.339.658.658,0,0,1,.05-.518c2.273-3.581,4.46-7.162,6.111-9.882l.073-.119-.126-.06c-3.464-1.624-7.449-3.286-10.9-2.422-4.393,1.1-5.144,4.95-5.87,8.674a32.748,32.748,0,0,1-.764,3.31c-1.341,4.356-4.662,6.172-8.178,8.095a44.072,44.072,0,0,0-3.845,2.277c-7.141,4.9-10.328,10.547-9.742,17.272.482,5.538,3.588,10.271,9.232,14.068,5.048,3.4,11.846,7.979,18.714,7.979q.68,0,1.36-.062c7.237-.66,14.092-5.884,15.947-12.15.907-3.062.64-6.233.381-9.3s-.527-6.245.408-9.261a13.117,13.117,0,0,1,3.834-5.854c.229-.217.49-.453.767-.7,1.639-1.484,3.884-3.517,3.817-5.645C78.361,76.931,76.24,76.767,74.189,76.608ZM59.887,100.7c.247.507.06,1.025-.665,1.846a6.893,6.893,0,0,0-.68,1c-.636,1.06-1.237,2.059-2.636,1.478a8.454,8.454,0,0,1-1.809-1.114c-.355-.262-.721-.533-1.125-.776a6,6,0,0,0-2.482-.7,7.8,7.8,0,0,1-1.786-.371,11.131,11.131,0,0,1-5.273-4A4.4,4.4,0,0,0,41.308,96.8c-.991-.362-1.926-.7-2.2-1.724-.374-1.357.65-2.795,1.453-3.759l.026-.03,0-.039a.728.728,0,0,1,.373-.57.545.545,0,0,1,.253-.063.618.618,0,0,1,.315.093,70.837,70.837,0,0,0,7.3,3.556c2.174.959,4.422,1.95,6.509,3.106l.366.2-.2-.37c-1.114-2.121-.84-4.791.75-7.327.872-1.4,2.125-1.52,3.453-1.652a6.338,6.338,0,0,0,3.2-.938c2.3-1.6,3.408-4.278,3.475-8.427a.6.6,0,0,1,.193-.447l.029-.039a.556.556,0,0,1,.7-.318c1.47.454,2.543,2.026,3.19,4.673a14.248,14.248,0,0,1-.63,7.732l-.141.442c-1.392,4.378-3.5,11-9.193,9.755-.112-.026-.217-.055-.323-.085l-.448-.12Z"/>
<path d="M79.65,43.081a12.356,12.356,0,0,1-1.718-.928l-.11-.076-.069.115q-.924,1.57-1.857,3.127l-.049.084.068.069A10.612,10.612,0,0,0,79.3,47.516c.293.13.586.26.874.4l.107.05.555-1.026q.609-1.123,1.213-2.248l.044-.083-.068-.065A8.585,8.585,0,0,0,79.65,43.081Z"/>
<path d="M78.646,48.588a12.694,12.694,0,0,1-3.358-1.971l-.113-.1-.078.131q-.7,1.168-1.4,2.322c-.146.233-.286.469-.428.7l-.229.383.1.065c.6.378,1.228.741,1.833,1.091.846.491,1.721,1,2.542,1.554l.115.078.065-.122q.631-1.17,1.271-2.338l.25-.462q.2-.367.4-.732l.064-.116-.119-.057C79.261,48.87,78.953,48.729,78.646,48.588Z"/>
<path d="M103.532,12.213l-.342.531q-.841-.42-1.686-.834c.458-.67.945-1.32,1.43-1.957.277-.363.553-.726.822-1.091l.025-.033V8.748c-.035-.943-1.362-1.779-2.154-2.278l-.151-.1h0a4.526,4.526,0,0,0-4.105-.766l-.054.021-.02.054a18.2,18.2,0,0,1-1.512,3.132c-.212-.15-.43-.292-.633-.43a11.2,11.2,0,0,0-1.079-.647c.1-.12.205-.23.276-.305.67-.695-.389-1.757-1.06-1.06a3.713,3.713,0,0,0-1.184,2.1.729.729,0,0,0,1.22.549l.027.013c.116.063.229.131.342.2.238.144.471.295.7.451.19.128.392.259.584.4-.521.768-1.077,1.51-1.645,2.238a13.072,13.072,0,0,0-1.986-1.209c.074-.1.141-.213.219-.316A.755.755,0,0,0,91.3,9.771a.768.768,0,0,0-1.027.269,12.54,12.54,0,0,0-1.1,1.74c-.447.855.847,1.614,1.3.757.027-.052.06-.1.088-.152a10.979,10.979,0,0,1,1.86,1.1c-.106.131-.211.263-.316.394-.627.782-1.257,1.589-1.872,2.408-.01,0-.015-.011-.026-.014a4.328,4.328,0,0,1-1.893-1.152c.094-.205.189-.408.275-.616a.755.755,0,0,0-.524-.923.768.768,0,0,0-.922.524,12.649,12.649,0,0,1-.732,1.458.751.751,0,0,0,1.14.933,6.365,6.365,0,0,0,1.775,1.04c-.062.089-.131.173-.192.263l-.03.044.012.052a12.252,12.252,0,0,1-.067,4.335l-.034.252.089.037c1.043.434,2.065.966,3.053,1.479l.476.247.063-.088c.691-.977,2.283-1.264,3.562-1.495.272-.049.533-.1.771-.146l.058-.013.027-.053c.042-.083.076-.169.116-.252A11.034,11.034,0,0,0,98.835,23.3c-.336.705.586,1.545,1.167.874a6.837,6.837,0,0,0,1.287-2.2c.327-.91-1.122-1.3-1.447-.4a4.442,4.442,0,0,1-.212.453,9.8,9.8,0,0,1-1.778-1.266c.389-.99.724-2,1.044-2.987.085-.264.176-.532.263-.8a5.142,5.142,0,0,1,1.565.969A.664.664,0,0,0,100.8,18a.759.759,0,0,0,.526.9.768.768,0,0,0,.923-.524,2.81,2.81,0,0,1,.794-1.079c.726-.64-.338-1.7-1.06-1.06a3.838,3.838,0,0,0-.429.447,13.258,13.258,0,0,0-1.893-1.156c.112-.307.218-.616.339-.918a11.945,11.945,0,0,1,.7-1.426q.86.42,1.715.849a.761.761,0,0,0,1.391.51l1.017-1.572C105.353,12.157,104.055,11.405,103.532,12.213Z"/>
</g>
<text x="0" y="143" fill="#000000" font-size="5px" font-weight="bold" font-family="'Helvetica Neue', Helvetica, Arial-Unicode, Arial, Sans-serif">Created by Hey Rabbit</text><text x="0" y="148" fill="#000000" font-size="5px" font-weight="bold" font-family="'Helvetica Neue', Helvetica, Arial-Unicode, Arial, Sans-serif">from the Noun Project</text></svg>
